<svg data-v-d3f97b9e="" xmlns="http://www.w3.org/2000/svg" viewBox="0 0 776 90"><!----><!----><!----><g data-v-d3f97b9e="" id="2942b6ec-1690-441a-8264-4534a036e0ad" fill="#000000" transform="matrix(4.92206705261137,0,0,4.92206705261137,181.7982028943839,-3.2116499982945683)"><path d="M7.83 15.54C7.83 15.69 7.67 15.81 7.48 15.81L1.54 15.81C1.39 15.81 1.26 15.69 1.26 15.54L1.26 4.12C1.26 3.93 1.39 3.78 1.54 3.78L3.18 3.78C3.33 3.78 3.44 3.93 3.44 4.12L3.44 13.62L7.48 13.62C7.67 13.62 7.83 13.75 7.83 13.90ZM17.57 15.54C17.57 15.69 17.44 15.82 17.30 15.82L9.65 15.82C9.49 15.82 9.37 15.69 9.37 15.54L9.37 4.06C9.37 3.91 9.49 3.78 9.65 3.78L17.02 3.78C17.18 3.78 17.30 3.91 17.30 4.06L17.30 5.70C17.30 5.85 17.18 5.96 17.02 5.96L11.55 5.96L11.55 8.71L16.74 8.71C16.90 8.71 17.02 8.82 17.02 8.97L17.02 10.61C17.02 10.77 16.90 10.89 16.74 10.89L11.55 10.89L11.55 13.62L17.30 13.62C17.44 13.62 17.57 13.75 17.57 13.90ZM27.03 12.28C27.03 12.38 27.02 13.22 26.49 14.07C26.00 14.88 24.99 15.83 22.93 15.83C21.31 15.83 20.03 15.15 19.35 13.93C19.03 13.34 18.90 12.77 18.86 12.40C18.86 12.38 18.84 12.35 18.84 12.32C18.84 12.18 18.96 12.05 19.10 12.04L20.82 12.04C20.93 12.05 21.01 12.12 21.04 12.24L21.04 12.25C21.04 12.26 21.06 12.28 21.06 12.29C21.08 12.46 21.15 12.70 21.29 12.91C21.59 13.40 22.13 13.65 22.93 13.65C23.79 13.65 24.33 13.41 24.63 12.94C24.82 12.61 24.85 12.26 24.85 12.26C24.85 11.87 24.75 11.41 24.02 11.12C23.49 10.89 22.93 10.88 22.93 10.88C22.83 10.88 21.94 10.86 21.01 10.50C19.60 9.93 18.83 8.81 18.83 7.34C18.83 7.20 18.86 5.89 19.88 4.87C20.61 4.13 21.64 3.75 22.93 3.75C23.76 3.75 24.95 3.93 25.86 4.86C26.74 5.75 26.96 6.89 27.02 7.45L27.02 7.48C27.02 7.64 26.91 7.77 26.75 7.77L25.06 7.77C24.95 7.76 24.85 7.66 24.82 7.55L24.82 7.50C24.78 7.31 24.71 7.03 24.57 6.75C24.37 6.40 24.00 5.94 22.93 5.94C22.25 5.94 21.74 6.09 21.42 6.41C21.04 6.79 21.01 7.34 21.01 7.34C21.01 7.73 21.11 8.18 21.84 8.47C22.37 8.68 22.93 8.69 22.93 8.69C23.03 8.69 23.93 8.71 24.85 9.09C26.26 9.67 27.03 10.81 27.03 12.28ZM35 5.68C35 5.87 34.96 6.03 34.87 6.20L30.91 13.62L34.66 13.62C34.85 13.62 35 13.73 35 13.89L35 15.53C35 15.68 34.85 15.81 34.66 15.81L28.71 15.81C28.56 15.81 28.43 15.68 28.43 15.53L28.43 13.93C28.43 13.73 28.48 13.55 28.56 13.37L32.52 5.96L28.71 5.96C28.56 5.96 28.43 5.84 28.43 5.68L28.43 4.05C28.43 3.89 28.56 3.77 28.71 3.77L34.66 3.77C34.85 3.77 35 3.89 35 4.05ZM44.88 15.54C44.88 15.69 44.76 15.82 44.62 15.82L36.96 15.82C36.81 15.82 36.68 15.69 36.68 15.54L36.68 4.06C36.68 3.91 36.81 3.78 36.96 3.78L44.34 3.78C44.49 3.78 44.62 3.91 44.62 4.06L44.62 5.70C44.62 5.85 44.49 5.96 44.34 5.96L38.86 5.96L38.86 8.71L44.06 8.71C44.21 8.71 44.34 8.82 44.34 8.97L44.34 10.61C44.34 10.77 44.21 10.89 44.06 10.89L38.86 10.89L38.86 13.62L44.62 13.62C44.76 13.62 44.88 13.75 44.88 13.90ZM54.63 15.53C54.63 15.68 54.52 15.81 54.36 15.81L52.36 15.81C52.28 15.81 52.21 15.78 52.15 15.71L52.14 15.68L48.75 10.92L48.75 15.53C48.75 15.68 48.64 15.81 48.48 15.81L46.84 15.81C46.69 15.81 46.56 15.68 46.56 15.53L46.56 8.69L47.85 8.69L46.59 4.20L46.56 4.09L46.56 4.06C46.56 3.91 46.69 3.78 46.84 3.78L48.55 3.78C48.66 3.78 48.78 3.86 48.80 3.98L49.91 7.92L52.12 3.93C52.18 3.84 52.26 3.78 52.37 3.78L54.24 3.78C54.39 3.78 54.52 3.91 54.52 4.06C54.52 4.10 54.50 4.14 54.49 4.19L54.46 4.23L51.04 10.37L54.56 15.33L54.60 15.37C54.61 15.41 54.63 15.47 54.63 15.53ZM70.81 15.53C70.81 15.68 70.70 15.81 70.55 15.81L68.54 15.81C68.46 15.81 68.39 15.78 68.33 15.71L68.32 15.68L64.93 10.92L64.93 15.53C64.93 15.68 64.82 15.81 64.67 15.81L63.03 15.81C62.87 15.81 62.75 15.68 62.75 15.53L62.75 8.69L64.04 8.69L62.78 4.20L62.75 4.09L62.75 4.06C62.75 3.91 62.87 3.78 63.03 3.78L64.74 3.78C64.85 3.78 64.96 3.86 64.99 3.98L66.09 7.92L68.31 3.93C68.36 3.84 68.45 3.78 68.56 3.78L70.42 3.78C70.57 3.78 70.70 3.91 70.70 4.06C70.70 4.10 70.69 4.14 70.67 4.19L70.64 4.23L67.23 10.37L70.74 15.33L70.78 15.37C70.80 15.41 70.81 15.47 70.81 15.53ZM76.76 15.82C73.44 15.82 70.74 13.12 70.74 9.80C70.74 6.48 73.44 3.78 76.76 3.78C80.08 3.78 82.78 6.48 82.78 9.80C82.78 13.12 80.08 15.82 76.76 15.82ZM76.76 5.96C74.65 5.96 72.93 7.69 72.93 9.80C72.93 11.91 74.65 13.62 76.76 13.62C78.88 13.62 80.58 11.91 80.58 9.80C80.58 7.69 78.88 5.96 76.76 5.96ZM92.39 15.37L90.16 11.42L89.85 10.89L89.78 10.77C91.81 10.32 92.86 8.82 92.86 7.35C92.86 6.38 92.41 5.46 91.64 4.82C90.86 4.14 89.75 3.79 88.48 3.79L84.39 3.79C84.24 3.79 84.11 3.92 84.11 4.06L84.11 5.17L84.25 5.42L84.25 5.43L86.11 8.71L84.11 8.71L84.11 15.54C84.11 15.69 84.24 15.82 84.39 15.82L86.03 15.82C86.17 15.82 86.30 15.69 86.30 15.54L86.30 10.89L87.35 10.89L87.64 11.42L90.03 15.65L90.06 15.69C90.10 15.76 90.19 15.82 90.29 15.82L92.16 15.82C92.32 15.82 92.43 15.69 92.43 15.53C92.43 15.48 92.43 15.44 92.40 15.40ZM88.33 8.19L87.08 5.98L88.48 5.98C89.99 5.98 90.66 6.69 90.66 7.35C90.66 7.91 90.16 8.53 89.03 8.68C88.90 8.69 88.76 8.71 88.62 8.71ZM100.97 5.68C100.97 5.87 100.93 6.03 100.84 6.20L96.88 13.62L100.63 13.62C100.81 13.62 100.97 13.73 100.97 13.89L100.97 15.53C100.97 15.68 100.81 15.81 100.63 15.81L94.68 15.81C94.53 15.81 94.40 15.68 94.40 15.53L94.40 13.93C94.40 13.73 94.44 13.55 94.53 13.37L98.49 5.96L94.68 5.96C94.53 5.96 94.40 5.84 94.40 5.68L94.40 4.05C94.40 3.89 94.53 3.77 94.68 3.77L100.63 3.77C100.81 3.77 100.97 3.89 100.97 4.05ZM110.78 11.16C110.78 11.00 110.66 10.89 110.50 10.89L109.58 10.89L107.87 4.05L107.86 3.98C107.81 3.88 107.72 3.81 107.60 3.81L105.77 3.81C105.66 3.81 105.56 3.88 105.52 3.98L105.50 4.06L102.66 15.41C102.66 15.43 102.66 15.44 102.65 15.44L102.65 15.50C102.65 15.67 102.77 15.79 102.91 15.79L104.61 15.79C104.72 15.79 104.83 15.71 104.86 15.60C104.86 15.58 104.87 15.57 104.87 15.57L105.49 13.06L107.88 13.06L108.50 15.55L108.51 15.60C108.56 15.71 108.65 15.79 108.77 15.79L110.46 15.79C110.61 15.79 110.73 15.67 110.73 15.50L110.73 15.47L110.71 15.40L110.12 13.06L110.50 13.06C110.66 13.06 110.78 12.95 110.78 12.80ZM106.04 10.89L106.69 8.30L107.34 10.89ZM120.67 15.89L114.65 9.32L114.65 15.53C114.65 15.68 114.53 15.81 114.38 15.81L112.74 15.81C112.59 15.81 112.46 15.68 112.46 15.53L112.46 3.70L118.48 10.26L118.48 4.06C118.48 3.91 118.61 3.78 118.75 3.78L120.40 3.78C120.54 3.78 120.67 3.91 120.67 4.06Z"></path></g><linearGradient data-v-d3f97b9e="" gradientTransform="rotate(25)" id="e5040bf1-cbf4-48f3-b927-15af814de0e7" x1="0%" y1="0%" x2="100%" y2="0%"><stop data-v-d3f97b9e="" offset="0%" style="stop-color: rgb(0, 118, 221); stop-opacity: 1;"></stop><stop data-v-d3f97b9e="" offset="100%" style="stop-color: rgb(0, 205, 233); stop-opacity: 1;"></stop></linearGradient><g data-v-d3f97b9e="" id="4441f485-9c0a-42a8-b76d-581bbe3db88d" transform="matrix(5.454545454545454,0,0,5.454545454545454,-24.490914864973576,-63.563632965087876)" stroke="none" fill="url(#e5040bf1-cbf4-48f3-b927-15af814de0e7)"><path clip-rule="evenodd" d="M26.7 13.4L25.2 16l6.6 4-6.6 4 1.5 2.6 8.7-5.3v-2.6l-8.7-5.3zm-13.4 0l-8.7 5.3v2.6l8.7 5.3 1.5-2.6-6.6-4 6.6-4-1.5-2.6zm3 14.2l2.9.7 3.5-15.8-2.9-.7-3.5 15.8z"></path></g><!----></svg>